<?xml version="1.0" standalone="no"?><!DOCTYPE svg PUBLIC "-//W3C//DTD SVG 1.1//EN" "http://www.w3.org/Graphics/SVG/1.1/DTD/svg11.dtd"><svg t="1612018477572" class="icon" viewBox="0 0 1024 1024" version="1.1" xmlns="http://www.w3.org/2000/svg" p-id="2206" xmlns:xlink="http://www.w3.org/1999/xlink" width="200" height="200"><defs><style type="text/css"></style></defs><path d="M511.347131 65.214281c-246.678192 0-446.650643 199.972451-446.650643 446.650643s199.972451 446.650643 446.650643 446.650643 446.650643-199.972451 446.650643-446.650643S758.025323 65.214281 511.347131 65.214281zM510.744403 894.491391c-211.92262 0-383.720382-171.797761-383.720382-383.720382s171.797761-383.720382 383.720382-383.720382 383.720382 171.797761 383.720382 383.720382S722.667024 894.491391 510.744403 894.491391zM502.173191 708.726523c8.139378 8.138354 8.139378 21.332864 0 29.471219l0 0c-8.138354 8.139378-21.332864 8.139378-29.471219 0L261.234723 526.730493c-8.139378-8.138354-8.139378-21.331841 0-29.471219l0 0c8.138354-8.138354 21.332864-8.138354 29.471219 0L502.173191 708.726523 502.173191 708.726523zM290.705941 526.470573c-8.138354 8.139378-21.332864 8.139378-29.471219 0l0 0c-8.139378-8.138354-8.139378-21.331841 0-29.471219l211.467249-211.467249c8.138354-8.138354 21.332864-8.138354 29.471219 0l0 0c8.139378 8.139378 8.139378 21.332864 0 29.472242L290.705941 526.470573 290.705941 526.470573zM290.705941 526.470573M737.565339 483.569484c15.624862-0.010233 28.296463 12.648065 28.304649 28.271904l0 0c0.010233 15.623839-12.648065 28.296463-28.271904 28.304649l-405.963988 0.233314c-15.623839 0.010233-28.29544-12.647041-28.304649-28.271904l0 0c-0.00921-15.623839 12.649088-28.29544 28.271904-28.304649L737.565339 483.569484 737.565339 483.569484z" p-id="2207" fill="#515151"></path></svg>