<?xml version="1.0" standalone="no"?><!DOCTYPE svg PUBLIC "-//W3C//DTD SVG 1.1//EN" "http://www.w3.org/Graphics/SVG/1.1/DTD/svg11.dtd"><svg t="1612099581478" class="icon" viewBox="0 0 1024 1024" version="1.1" xmlns="http://www.w3.org/2000/svg" p-id="2171" xmlns:xlink="http://www.w3.org/1999/xlink" width="64" height="64"><defs><style type="text/css"></style></defs><path d="M896 128H128c-17.696 0-32 14.304-32 32 0 17.696 14.304 32 32 32h768c17.696 0 32-14.304 32-32 0-17.696-14.304-32-32-32z m0 352H128c-17.696 0-32 14.304-32 32 0 17.696 14.304 32 32 32h768c17.696 0 32-14.304 32-32 0-17.696-14.304-32-32-32z m0 352H128c-17.696 0-32 14.304-32 32 0 17.696 14.304 32 32 32h768c17.696 0 32-14.304 32-32 0-17.696-14.304-32-32-32z" p-id="2172" fill="#f15858"></path></svg>