<?xml version="1.0" standalone="no"?>
<!DOCTYPE svg 
PUBLIC "-//W3C//DTD SVG 1.1//EN" "http://www.w3.org/Graphics/SVG/1.1/DTD/svg11.dtd">
<svg t="1612101474574" class="icon" viewBox="0 0 1024 1024" version="1.1" xmlns="http://www.w3.org/2000/svg" p-id="6908" xmlns:xlink="http://www.w3.org/1999/xlink" width="6vm" height="6vm"><defs><style type="text/css"></style></defs><path d="M562.9 80.9C535.4 56 493.5 56 466 80.9L74 453.1c-14.7 13.5-15.7 36.4-2.2 51.1 13.3 14.5 35.8 15.7 50.6 2.6l6.2-5.9v388.4c0 39.9 32.3 72.4 72.2 72.4h210.5V744c0-28.1 22.7-50.9 50.8-51h99.1c28.1 0 50.9 22.8 50.9 50.9V961.7h215.4c39.9 0 72.3-32.4 72.3-72.3V505.7c16.1 14.5 38.9 13.4 52.2-1.5 13.4-14.8 12.2-37.7-2.6-51.1L562.9 80.9z" p-id="6909" fill="#bfbfbf"></path></svg>